<svg xmlns="http://www.w3.org/2000/svg" xmlns:xlink="http://www.w3.org/1999/xlink" width="186.89" height="26.095" viewBox="0 0 186.89 26.095">
  <defs>
    <clipPath id="clip-path">
      <rect width="186.89" height="26.095" fill="none"/>
    </clipPath>
  </defs>
  <g id="Komponente_1_1" data-name="Komponente 1 – 1" clip-path="url(#clip-path)">
    <path id="Pfad_15" data-name="Pfad 15" d="M15.554-15.4V0h-2.2V-6.864H4.51V0H2.31V-15.4h2.2v6.622h8.844V-15.4ZM31.35-1.914V0H20.174V-15.4H31.042v1.914H22.374v4.73H30.1v1.87H22.374v4.972ZM44.418,0,39.8-6.358,35.244,0h-2.53L38.5-7.9l-5.434-7.5h2.508l4.312,5.918L44.154-15.4h2.4L41.118-7.964,46.948,0ZM58.63-3.85H50.446L48.752,0H46.486L53.46-15.4h2.178l7,15.4h-2.31Zm-.77-1.76-3.322-7.546L51.216-5.61ZM75.372-7.788h2.112v6.006A8.2,8.2,0,0,1,74.822-.33a9.952,9.952,0,0,1-3.168.506,8.61,8.61,0,0,1-4.2-1.023,7.586,7.586,0,0,1-2.937-2.816A7.742,7.742,0,0,1,63.448-7.7a7.8,7.8,0,0,1,1.067-4.048,7.464,7.464,0,0,1,2.948-2.816A8.8,8.8,0,0,1,71.7-15.576a8.932,8.932,0,0,1,3.355.6A6.849,6.849,0,0,1,77.616-13.2l-1.364,1.364a6.2,6.2,0,0,0-4.466-1.782,6.5,6.5,0,0,0-3.157.759,5.564,5.564,0,0,0-2.189,2.112A5.919,5.919,0,0,0,65.648-7.7a5.876,5.876,0,0,0,.792,3.025,5.642,5.642,0,0,0,2.189,2.123,6.385,6.385,0,0,0,3.135.77,6.525,6.525,0,0,0,3.608-.99ZM88.638.176a8.61,8.61,0,0,1-4.2-1.023A7.561,7.561,0,0,1,81.5-3.674,7.759,7.759,0,0,1,80.432-7.7,7.759,7.759,0,0,1,81.5-11.726a7.561,7.561,0,0,1,2.937-2.827,8.61,8.61,0,0,1,4.2-1.023,8.565,8.565,0,0,1,4.18,1.023,7.507,7.507,0,0,1,2.926,2.816A7.8,7.8,0,0,1,96.8-7.7a7.8,7.8,0,0,1-1.056,4.037A7.507,7.507,0,0,1,92.818-.847,8.564,8.564,0,0,1,88.638.176Zm0-1.958a6.05,6.05,0,0,0,3.047-.77,5.649,5.649,0,0,0,2.134-2.123A5.941,5.941,0,0,0,94.6-7.7a5.941,5.941,0,0,0-.781-3.025,5.649,5.649,0,0,0-2.134-2.123,6.05,6.05,0,0,0-3.047-.77,6.172,6.172,0,0,0-3.069.77,5.6,5.6,0,0,0-2.156,2.123A5.941,5.941,0,0,0,82.632-7.7a5.941,5.941,0,0,0,.781,3.025,5.6,5.6,0,0,0,2.156,2.123A6.172,6.172,0,0,0,88.638-1.782ZM113.41-15.4V0h-1.8l-9.24-11.484V0h-2.2V-15.4h1.8l9.24,11.484V-15.4Zm10.538,0h2.2V-1.914h8.338V0H123.948Zm13.068,0h2.2V0h-2.2Zm17.49,7.612h2.112v6.006A8.2,8.2,0,0,1,153.956-.33a9.952,9.952,0,0,1-3.168.506,8.61,8.61,0,0,1-4.2-1.023,7.586,7.586,0,0,1-2.937-2.816A7.742,7.742,0,0,1,142.582-7.7a7.8,7.8,0,0,1,1.067-4.048,7.464,7.464,0,0,1,2.948-2.816,8.8,8.8,0,0,1,4.235-1.012,8.932,8.932,0,0,1,3.355.6A6.849,6.849,0,0,1,156.75-13.2l-1.364,1.364a6.2,6.2,0,0,0-4.466-1.782,6.5,6.5,0,0,0-3.157.759,5.564,5.564,0,0,0-2.189,2.112,5.919,5.919,0,0,0-.792,3.047,5.876,5.876,0,0,0,.792,3.025,5.642,5.642,0,0,0,2.189,2.123,6.385,6.385,0,0,0,3.135.77,6.525,6.525,0,0,0,3.608-.99ZM174.064-15.4V0h-2.2V-6.864H163.02V0h-2.2V-15.4h2.2v6.622h8.844V-15.4Zm7.678,1.914h-5.28V-15.4H189.2v1.914h-5.28V0h-2.178Z" transform="translate(-2.31 20.386)" fill="#707070"/>
    <path id="Pfad_12" data-name="Pfad 12" d="M-79.124-77.563l-5.219,9.04H-94.781L-100-77.563l5.219-9.04h10.438Z" transform="translate(125.837 125) rotate(30)" fill="#f1c40f"/>
  </g>
</svg>
